# Blender v2.92.0 OBJ File: ''
# www.blender.org
mtllib beak.mtl
o pCube6_Mesh.026
v -0.016735 0.328902 0.258549
v -0.020492 0.327293 0.258549
v -0.022048 0.323407 0.258549
v -0.036656 0.323570 0.208715
v -0.034060 0.327340 0.208715
v -0.027792 0.328902 0.208715
v 0.022048 0.323407 0.258549
v 0.020492 0.327293 0.258549
v 0.016735 0.328902 0.258549
v 0.036656 0.323570 0.208715
v 0.027792 0.328902 0.208715
v 0.034060 0.327340 0.208715
v -0.022048 0.290353 0.258549
v -0.020433 0.286430 0.258549
v -0.016533 0.284806 0.258549
v -0.034060 0.286367 0.208715
v -0.036656 0.290137 0.208715
v -0.027792 0.284806 0.208715
v 0.016533 0.284806 0.258549
v 0.020433 0.286430 0.258549
v 0.022048 0.290353 0.258549
v 0.034060 0.286367 0.208715
v 0.027792 0.284806 0.208715
v 0.036656 0.290137 0.208715
v -0.013964 0.284424 0.284638
v -0.012328 0.281032 0.282942
v -0.008380 0.279627 0.282239
v 0.008380 0.279627 0.282239
v 0.012328 0.281066 0.282959
v 0.013964 0.284539 0.284696
v 0.013964 0.302076 0.293467
v 0.012392 0.305545 0.295202
v 0.008596 0.306981 0.295921
v -0.008596 0.306981 0.295921
v -0.012392 0.305545 0.295202
v -0.013964 0.302076 0.293467
v -0.006051 0.273016 0.303358
v -0.004456 0.270484 0.300642
v -0.000606 0.269435 0.299517
v 0.006051 0.273016 0.303358
v 0.000606 0.269435 0.299517
v 0.004456 0.270484 0.300642
v 0.000745 0.278917 0.309685
v 0.006051 0.275261 0.305765
v 0.004497 0.277846 0.308537
v -0.006051 0.275261 0.305765
v -0.000745 0.278917 0.309685
v -0.004497 0.277846 0.308537
v 0.021966 0.289016 0.193724
v 0.026920 0.290279 0.193724
v -0.021966 0.289016 0.193724
v -0.026920 0.290279 0.193724
v -0.028972 0.293329 0.193724
v -0.028972 0.320379 0.193724
v -0.026920 0.323429 0.193724
v -0.021966 0.324692 0.193724
v 0.021966 0.324692 0.193724
v 0.026920 0.323429 0.193724
v 0.028972 0.320379 0.193724
v 0.028972 0.293329 0.193724
v 0.000691 0.275261 0.305765
v -0.000691 0.275261 0.305765
v -0.000658 0.273016 0.303358
v 0.000658 0.273016 0.303358
vt 0.375000 0.218845
vt 0.375000 0.250000
vt 0.125000 0.250000
vt 0.125000 0.219773
vt 0.405124 0.250000
vt 0.405227 0.500000
vt 0.375000 0.500000
vt 0.594876 0.250000
vt 0.625000 0.250000
vt 0.625000 0.500000
vt 0.594773 0.500000
vt 0.625000 0.218845
vt 0.875000 0.219773
vt 0.875000 0.250000
vt 0.406270 1.000000
vt 0.375000 1.000000
vt 0.375000 0.750000
vt 0.405227 0.750000
vt 0.375000 0.000000
vt 0.375000 0.031447
vt 0.125000 0.030227
vt 0.125000 0.000000
vt 0.625000 0.031447
vt 0.625000 0.000000
vt 0.875000 0.000000
vt 0.875000 0.030227
vt 0.625000 1.000000
vt 0.593730 1.000000
vt 0.594773 0.750000
vt 0.625000 0.750000
vt 0.406270 0.000000
vt 0.593730 0.000000
vt 0.575015 0.000000
vt 0.424985 0.000000
vt 0.625000 0.205169
vt 0.625000 0.044894
vt 0.423052 0.250000
vt 0.576948 0.250000
vt 0.375000 0.043841
vt 0.375000 0.205169
vt 0.512511 0.000000
vt 0.487489 0.000000
vt 0.625000 0.153607
vt 0.625000 0.094426
vt 0.484618 0.250000
vt 0.515382 0.250000
vt 0.375000 0.094426
vt 0.375000 0.153607
vt 0.625000 0.750000
vt 0.594773 0.750000
vt 0.405227 0.750000
vt 0.375000 0.750000
vt 0.375000 0.719773
vt 0.375000 0.530227
vt 0.375000 0.500000
vt 0.405227 0.500000
vt 0.594773 0.500000
vt 0.625000 0.500000
vt 0.625000 0.530227
vt 0.625000 0.719773
vt 0.514275 0.153607
vt 0.513595 0.094426
vt 0.375000 0.250000
vt 0.625000 0.250000
vt 0.375000 0.000000
vt 0.625000 0.000000
vt 0.375000 0.000000
vt 0.625000 0.000000
vt 0.625000 0.250000
vt 0.375000 0.250000
vt 0.375000 0.719773
vt 0.375000 0.530227
vt 0.625000 0.530227
vt 0.625000 0.719773
vt 0.485725 0.153607
vt 0.486404 0.094426
vn -0.9585 0.0547 0.2798
vn -0.8689 0.3991 0.2928
vn -0.8529 0.4626 0.2421
vn -0.9587 0.0489 0.2802
vn -0.3007 0.9508 0.0748
vn -0.0251 0.9997 0.0062
vn -0.0398 0.9973 -0.0616
vn -0.2881 0.9572 -0.0288
vn 0.0251 0.9997 0.0062
vn 0.3007 0.9508 0.0748
vn 0.2881 0.9572 -0.0288
vn 0.0398 0.9973 -0.0616
vn 0.8689 0.3991 0.2928
vn 0.9585 0.0548 0.2798
vn 0.9587 0.0489 0.2802
vn 0.8529 0.4626 0.2421
vn -0.0350 -0.9990 -0.0286
vn -0.3127 -0.9489 0.0431
vn -0.2863 -0.9578 -0.0276
vn -0.0402 -0.9973 -0.0616
vn -0.8632 -0.4542 0.2205
vn -0.9623 -0.0635 0.2645
vn -0.9586 -0.0496 0.2803
vn -0.8510 -0.4659 0.2424
vn 0.9623 -0.0636 0.2645
vn 0.8637 -0.4530 0.2211
vn 0.8510 -0.4659 0.2424
vn 0.9586 -0.0496 0.2803
vn 0.3135 -0.9486 0.0435
vn 0.0351 -0.9990 -0.0286
vn 0.0402 -0.9973 -0.0616
vn 0.2863 -0.9578 -0.0276
vn 0.0690 -0.9635 -0.2588
vn -0.0682 -0.9634 -0.2591
vn 0.9540 -0.0084 0.2998
vn 0.9641 -0.1199 0.2371
vn 0.0557 0.8557 0.5145
vn -0.0557 0.8557 0.5145
vn -0.0423 0.8576 0.5126
vn 0.0423 0.8576 0.5126
vn -0.9640 -0.1202 0.2371
vn -0.9540 -0.0086 0.2998
vn 0.0908 -0.8746 -0.4762
vn -0.0897 -0.8746 -0.4765
vn 0.9279 -0.1183 0.3536
vn 0.9408 -0.2386 0.2407
vn 0.1155 0.4098 0.9048
vn -0.1155 0.4098 0.9048
vn -0.0879 0.4177 0.9043
vn 0.0879 0.4177 0.9043
vn -0.9408 -0.2381 0.2413
vn -0.9280 -0.1184 0.3534
vn 0.0000 0.0000 -1.0000
vn -0.0000 -0.7314 0.6820
vn -0.3599 0.7669 0.5314
vn -0.8765 0.2008 0.4375
vn 0.8765 0.2008 0.4375
vn 0.3599 0.7669 0.5314
vn -0.8719 -0.4727 0.1276
vn -0.3649 -0.9133 -0.1809
vn 0.3686 -0.9122 -0.1792
vn 0.8736 -0.4692 0.1295
vn -0.8562 -0.5129 0.0619
vn -0.3552 -0.8651 -0.3541
vn 0.3591 -0.8641 -0.3527
vn 0.8585 -0.5088 0.0634
vn 0.8330 0.0185 0.5530
vn 0.3298 0.3357 0.8824
vn -0.3298 0.3357 0.8824
vn -0.8330 0.0185 0.5530
vn 0.0169 -0.9609 -0.2765
vn 0.2291 -0.9100 -0.3455
vn -0.0169 -0.9609 -0.2765
vn -0.2291 -0.9100 -0.3455
vn -0.7265 -0.4951 -0.4765
vn -0.8899 0.0000 -0.4561
vn -0.7265 0.4951 -0.4765
vn -0.0170 0.9609 -0.2765
vn -0.2291 0.9100 -0.3455
vn 0.0170 0.9609 -0.2765
vn 0.2291 0.9100 -0.3456
vn 0.7265 0.4951 -0.4765
vn 0.8899 0.0000 -0.4561
vn 0.7265 -0.4951 -0.4765
usemtl rsMaterial2
s 1
f 3/1/1 2/2/2 5/3/3 4/4/4
f 2/2/5 1/5/6 6/6/7 5/7/8
f 9/8/9 8/9/10 12/10/11 11/11/12
f 8/9/13 7/12/14 10/13/15 12/14/16
f 15/15/17 14/16/18 16/17/19 18/18/20
f 14/19/21 13/20/22 17/21/23 16/22/24
f 21/23/25 20/24/26 22/25/27 24/26/28
f 20/27/29 19/28/30 23/29/31 22/30/32
f 1/5/6 9/8/9 11/11/12 6/6/7
f 15/15/17 18/18/20 23/29/31 19/28/30
f 21/23/25 24/26/28 10/13/15 7/12/14
f 17/21/23 13/20/22 3/1/1 4/4/4
f 15/31/17 19/32/30 28/33/33 27/34/34
f 21/23/25 7/12/14 31/35/35 30/36/36
f 9/8/37 1/5/38 34/37/39 33/38/40
f 3/1/1 13/20/22 25/39/41 36/40/42
f 27/34/34 28/33/33 41/41/43 39/42/44
f 30/36/36 31/35/35 44/43/45 40/44/46
f 33/38/47 34/37/48 47/45/49 43/46/50
f 36/40/42 25/39/41 37/47/51 46/48/52
f 50/49/53 49/50/53 51/51/53 52/52/53 53/53/53 54/54/53 55/55/53 56/56/53 57/57/53 58/58/53 59/59/53 60/60/53
f 44/43/54 61/61/54 64/62/54 40/44/54
f 1/5/38 2/2/55 35/63/55 34/37/39
f 2/2/2 3/1/1 36/40/42 35/63/56
f 7/12/14 8/9/13 32/64/57 31/35/35
f 8/9/58 9/8/37 33/38/40 32/64/58
f 13/20/22 14/19/21 26/65/59 25/39/41
f 14/19/18 15/31/17 27/34/34 26/65/60
f 19/32/30 20/24/29 29/66/61 28/33/33
f 20/24/26 21/23/25 30/36/36 29/66/62
f 25/39/41 26/65/59 38/67/63 37/47/51
f 26/65/60 27/34/34 39/42/44 38/67/64
f 28/33/33 29/66/61 42/68/65 41/41/43
f 29/66/62 30/36/36 40/44/46 42/68/66
f 31/35/35 32/64/57 45/69/67 44/43/45
f 32/64/68 33/38/47 43/46/50 45/69/68
f 34/37/48 35/63/69 48/70/69 47/45/49
f 35/63/56 36/40/42 46/48/52 48/70/70
f 22/30/32 23/29/31 49/50/71 50/49/72
f 23/29/31 18/18/20 51/51/73 49/50/71
f 18/18/20 16/17/19 52/52/74 51/51/73
f 16/17/75 17/71/75 53/53/75 52/52/75
f 17/71/76 4/72/76 54/54/76 53/53/76
f 4/72/77 5/7/77 55/55/77 54/54/77
f 5/7/8 6/6/7 56/56/78 55/55/79
f 6/6/7 11/11/12 57/57/80 56/56/78
f 11/11/12 12/10/11 58/58/81 57/57/80
f 12/10/82 10/73/82 59/59/82 58/58/82
f 10/73/83 24/74/83 60/60/83 59/59/83
f 24/74/84 22/30/84 50/49/84 60/60/84
f 61/61/54 62/75/54 63/76/54 64/62/54
f 46/48/54 37/47/54 63/76/54 62/75/54
f 43/46/54 61/61/54 44/43/54 45/69/54
f 47/45/54 62/75/54 61/61/54 43/46/54
f 46/48/54 62/75/54 47/45/54 48/70/54
f 63/76/54 37/47/54 38/67/54 39/42/54
f 64/62/54 63/76/54 39/42/54 41/41/54
f 40/44/54 64/62/54 41/41/54 42/68/54
