# Blender v2.92.0 OBJ File: ''
# www.blender.org
mtllib eyes.mtl
o pCylinder1_Mesh.027
v 0.037569 0.352329 0.196072
v 0.043251 0.339504 0.190738
v 0.044826 0.325567 0.196072
v 0.041373 0.318680 0.208950
v 0.034913 0.322878 0.221828
v 0.029232 0.335703 0.227162
v 0.027656 0.349640 0.221828
v 0.031110 0.356527 0.208950
v 0.034669 0.351542 0.194873
v 0.040350 0.338718 0.189539
v 0.041926 0.324780 0.194873
v 0.038472 0.317893 0.207751
v 0.032013 0.322092 0.220630
v 0.026331 0.334916 0.225964
v 0.024755 0.348854 0.220630
v 0.028209 0.355741 0.207751
v 0.033341 0.336817 0.207751
v 0.037096 0.347084 0.200658
v 0.040755 0.338827 0.197224
v 0.041769 0.329853 0.200658
v 0.039545 0.325419 0.208950
v 0.035386 0.328122 0.217242
v 0.031728 0.336380 0.220676
v 0.030713 0.345354 0.217242
v 0.032937 0.349788 0.208950
v 0.040297 0.347953 0.201981
v 0.043956 0.339695 0.198546
v 0.039442 0.338471 0.210273
v 0.044970 0.330721 0.201981
v 0.042746 0.326287 0.210273
v 0.038587 0.328990 0.218564
v 0.034929 0.337248 0.221999
v 0.033914 0.346222 0.218564
v 0.036138 0.350656 0.210273
v -0.037569 0.352329 0.196072
v -0.043251 0.339504 0.190738
v -0.044826 0.325567 0.196072
v -0.041373 0.318680 0.208950
v -0.034913 0.322878 0.221828
v -0.029232 0.335703 0.227162
v -0.027656 0.349640 0.221828
v -0.031110 0.356527 0.208950
v -0.034669 0.351542 0.194873
v -0.040350 0.338718 0.189539
v -0.041926 0.324780 0.194873
v -0.038472 0.317893 0.207751
v -0.032013 0.322092 0.220630
v -0.026331 0.334916 0.225964
v -0.024755 0.348854 0.220630
v -0.028209 0.355741 0.207751
v -0.033341 0.336817 0.207751
v -0.037096 0.347084 0.200658
v -0.040755 0.338827 0.197223
v -0.041769 0.329853 0.200658
v -0.039545 0.325419 0.208950
v -0.035386 0.328122 0.217242
v -0.031728 0.336380 0.220676
v -0.030713 0.345354 0.217242
v -0.032937 0.349788 0.208950
v -0.040297 0.347953 0.201981
v -0.043956 0.339695 0.198546
v -0.039442 0.338471 0.210273
v -0.044970 0.330721 0.201981
v -0.042746 0.326287 0.210273
v -0.038587 0.328990 0.218564
v -0.034929 0.337248 0.221999
v -0.033914 0.346222 0.218564
v -0.036138 0.350656 0.210273
vt 0.375000 0.312500
vt 0.406250 0.312500
vt 0.406250 0.688440
vt 0.375000 0.688440
vt 0.437500 0.312500
vt 0.437500 0.688440
vt 0.468750 0.312500
vt 0.468750 0.688440
vt 0.500000 0.312500
vt 0.500000 0.688440
vt 0.531250 0.312500
vt 0.531250 0.688440
vt 0.562500 0.312500
vt 0.562500 0.688440
vt 0.593750 0.312500
vt 0.593750 0.688440
vt 0.625000 0.312500
vt 0.625000 0.688440
vt 0.500000 0.000000
vt 0.610485 0.045765
vt 0.500000 0.150000
vt 0.389515 0.045765
vt 0.343750 0.156250
vt 0.389515 0.266735
vt 0.500000 0.312500
vt 0.610485 0.266735
vt 0.656250 0.156250
vt 0.610485 0.954235
vt 0.500000 1.000000
vt 0.500000 0.837500
vt 0.389515 0.954235
vt 0.343750 0.843750
vt 0.389515 0.733265
vt 0.500000 0.687500
vt 0.610485 0.733265
vt 0.656250 0.843750
vt 0.500000 0.000000
vt 0.610485 0.045765
vt 0.610485 0.045765
vt 0.500000 0.000000
vt 0.389515 0.045765
vt 0.389515 0.045765
vt 0.343750 0.156250
vt 0.343750 0.156250
vt 0.389515 0.266735
vt 0.389515 0.266735
vt 0.500000 0.312500
vt 0.500000 0.312500
vt 0.610485 0.266735
vt 0.610485 0.266735
vt 0.656250 0.156250
vt 0.656250 0.156250
vt 0.375000 0.312500
vt 0.375000 0.688440
vt 0.406250 0.688440
vt 0.406250 0.312500
vt 0.437500 0.688440
vt 0.437500 0.312500
vt 0.468750 0.688440
vt 0.468750 0.312500
vt 0.500000 0.688440
vt 0.500000 0.312500
vt 0.531250 0.688440
vt 0.531250 0.312500
vt 0.562500 0.688440
vt 0.562500 0.312500
vt 0.593750 0.688440
vt 0.593750 0.312500
vt 0.625000 0.688440
vt 0.625000 0.312500
vt 0.500000 0.000000
vt 0.500000 0.150000
vt 0.610485 0.045765
vt 0.389515 0.045765
vt 0.343750 0.156250
vt 0.389515 0.266735
vt 0.500000 0.312500
vt 0.610485 0.266735
vt 0.656250 0.156250
vt 0.610485 0.954235
vt 0.500000 0.837500
vt 0.500000 1.000000
vt 0.389515 0.954235
vt 0.343750 0.843750
vt 0.389515 0.733265
vt 0.500000 0.687500
vt 0.610485 0.733265
vt 0.656250 0.843750
vt 0.500000 0.000000
vt 0.500000 0.000000
vt 0.610485 0.045765
vt 0.610485 0.045765
vt 0.389515 0.045765
vt 0.389515 0.045765
vt 0.343750 0.156250
vt 0.343750 0.156250
vt 0.389515 0.266735
vt 0.389515 0.266735
vt 0.500000 0.312500
vt 0.500000 0.312500
vt 0.610485 0.266735
vt 0.610485 0.266735
vt 0.656250 0.156250
vt 0.656250 0.156250
vn 0.2302 0.4589 -0.8581
vn 0.4305 -0.2798 -0.8582
vn 0.3786 -0.8546 -0.3555
vn 0.1050 -0.9288 0.3555
vn -0.2301 -0.4589 0.8582
vn -0.4305 0.2798 0.8582
vn -0.3786 0.8546 0.3555
vn -0.1050 0.9288 -0.3555
vn 0.8965 0.2431 0.3704
vn -0.8965 -0.2431 -0.3704
vn 0.2301 0.4589 -0.8582
vn -0.4304 0.2798 0.8582
vn -0.2302 0.4589 -0.8582
vn -0.4304 -0.2798 -0.8582
vn -0.3786 -0.8546 -0.3555
vn -0.1050 -0.9288 0.3555
vn 0.2302 -0.4589 0.8582
vn 0.4305 0.2798 0.8582
vn 0.3786 0.8546 0.3555
vn 0.1050 0.9288 -0.3555
vn -0.8965 0.2431 0.3704
vn 0.8965 -0.2431 -0.3704
vn -0.2301 0.4589 -0.8582
vn -0.4305 -0.2798 -0.8582
vn 0.2301 -0.4589 0.8582
vn 0.4304 0.2798 0.8582
usemtl rsMaterial2
s 1
f 1/1/1 2/2/1 10/3/1 9/4/1
f 2/2/2 3/5/2 11/6/2 10/3/2
f 3/5/3 4/7/3 12/8/3 11/6/3
f 4/7/4 5/9/4 13/10/4 12/8/4
f 5/9/5 6/11/5 14/12/5 13/10/5
f 6/11/6 7/13/6 15/14/6 14/12/6
f 7/13/7 8/15/7 16/16/7 15/14/7
f 8/15/8 1/17/8 9/18/8 16/16/8
f 27/19/9 26/20/9 28/21/9
f 29/22/9 27/19/9 28/21/9
f 30/23/9 29/22/9 28/21/9
f 31/24/9 30/23/9 28/21/9
f 32/25/9 31/24/9 28/21/9
f 33/26/9 32/25/9 28/21/9
f 34/27/9 33/26/9 28/21/9
f 26/20/9 34/27/9 28/21/9
f 9/28/10 10/29/10 17/30/10
f 10/29/10 11/31/10 17/30/10
f 11/31/10 12/32/10 17/30/10
f 12/32/10 13/33/10 17/30/10
f 13/33/10 14/34/10 17/30/10
f 14/34/10 15/35/10 17/30/10
f 15/35/10 16/36/10 17/30/10
f 16/36/10 9/28/10 17/30/10
f 2/37/9 1/38/9 18/39/9 19/40/9
f 3/41/9 2/37/9 19/40/9 20/42/9
f 4/43/9 3/41/9 20/42/9 21/44/9
f 5/45/9 4/43/9 21/44/9 22/46/9
f 6/47/9 5/45/9 22/46/9 23/48/9
f 7/49/9 6/47/9 23/48/9 24/50/9
f 8/51/9 7/49/9 24/50/9 25/52/9
f 1/38/9 8/51/9 25/52/9 18/39/9
f 19/40/11 18/39/11 26/20/11 27/19/11
f 20/42/2 19/40/2 27/19/2 29/22/2
f 21/44/3 20/42/3 29/22/3 30/23/3
f 22/46/4 21/44/4 30/23/4 31/24/4
f 23/48/5 22/46/5 31/24/5 32/25/5
f 24/50/12 23/48/12 32/25/12 33/26/12
f 25/52/7 24/50/7 33/26/7 34/27/7
f 18/39/8 25/52/8 34/27/8 26/20/8
f 35/53/13 43/54/13 44/55/13 36/56/13
f 36/56/14 44/55/14 45/57/14 37/58/14
f 37/58/15 45/57/15 46/59/15 38/60/15
f 38/60/16 46/59/16 47/61/16 39/62/16
f 39/62/17 47/61/17 48/63/17 40/64/17
f 40/64/18 48/63/18 49/65/18 41/66/18
f 41/66/19 49/65/19 50/67/19 42/68/19
f 42/68/20 50/67/20 43/69/20 35/70/20
f 61/71/21 62/72/21 60/73/21
f 63/74/21 62/72/21 61/71/21
f 64/75/21 62/72/21 63/74/21
f 65/76/21 62/72/21 64/75/21
f 66/77/21 62/72/21 65/76/21
f 67/78/21 62/72/21 66/77/21
f 68/79/21 62/72/21 67/78/21
f 60/73/21 62/72/21 68/79/21
f 43/80/22 51/81/22 44/82/22
f 44/82/22 51/81/22 45/83/22
f 45/83/22 51/81/22 46/84/22
f 46/84/22 51/81/22 47/85/22
f 47/85/22 51/81/22 48/86/22
f 48/86/22 51/81/22 49/87/22
f 49/87/22 51/81/22 50/88/22
f 50/88/22 51/81/22 43/80/22
f 36/89/21 53/90/21 52/91/21 35/92/21
f 37/93/21 54/94/21 53/90/21 36/89/21
f 38/95/21 55/96/21 54/94/21 37/93/21
f 39/97/21 56/98/21 55/96/21 38/95/21
f 40/99/21 57/100/21 56/98/21 39/97/21
f 41/101/21 58/102/21 57/100/21 40/99/21
f 42/103/21 59/104/21 58/102/21 41/101/21
f 35/92/21 52/91/21 59/104/21 42/103/21
f 53/90/23 61/71/23 60/73/23 52/91/23
f 54/94/24 63/74/24 61/71/24 53/90/24
f 55/96/15 64/75/15 63/74/15 54/94/15
f 56/98/16 65/76/16 64/75/16 55/96/16
f 57/100/25 66/77/25 65/76/25 56/98/25
f 58/102/26 67/78/26 66/77/26 57/100/26
f 59/104/19 68/79/19 67/78/19 58/102/19
f 52/91/20 60/73/20 68/79/20 59/104/20
