# Blender v2.92.0 OBJ File: ''
# www.blender.org
mtllib grass2.mtl
o BezierCurve_BezierCurve.001
v 0.017117 3.310187 -0.000008
v -0.017127 3.661873 -0.000008
v -0.082695 3.344432 -0.000008
v -0.141324 2.855529 -0.000009
v 0.083489 2.683305 -0.000009
v -0.207975 1.529951 -0.000009
v 0.179095 1.577848 -0.000009
v -0.157504 0.018363 -0.000009
v 0.144497 0.009585 -0.000009
vn 0.0000 0.0000 -1.0000
vn 0.0000 -0.0000 1.0000
usemtl None.001
s off
f 8//1 7//1 9//1
s 1
f 2//2 3//2 1//2
f 1//2 3//2 4//2
f 1//2 4//2 5//2
f 5//2 4//2 6//2
f 7//2 5//2 6//2
f 7//2 6//2 8//2
