# Blender v2.92.0 OBJ File: ''
# www.blender.org
mtllib neck.mtl
o pCube4_Mesh.024
v -0.030650 0.336129 0.083179
v -0.019145 0.332013 0.083179
v -0.018397 0.337162 0.098245
v -0.018397 0.346710 0.104487
v -0.029453 0.346710 0.098245
v -0.035416 0.346064 0.083179
v 0.030650 0.336129 0.083179
v 0.035416 0.346064 0.083179
v 0.029453 0.346710 0.098245
v 0.018397 0.346710 0.104487
v 0.018397 0.337162 0.098245
v 0.019145 0.332013 0.083179
v -0.030650 0.389065 0.083179
v -0.035416 0.379130 0.083179
v -0.029453 0.378484 0.098245
v -0.018397 0.378484 0.104487
v -0.018397 0.388032 0.098245
v -0.019145 0.393181 0.083179
v 0.030650 0.389065 0.083179
v 0.019145 0.393181 0.082926
v 0.018397 0.388032 0.098245
v 0.018397 0.378484 0.104487
v 0.029453 0.378484 0.098245
v 0.035416 0.379130 0.083179
v -0.029453 0.378484 0.068103
v -0.018397 0.388032 0.068103
v -0.018397 0.378484 0.061861
v 0.029453 0.378484 0.068103
v 0.018397 0.378484 0.061861
v 0.018397 0.388032 0.067617
v -0.029453 0.346710 0.068103
v -0.018397 0.346710 0.061861
v -0.018397 0.337162 0.068103
v 0.018397 0.337162 0.068103
v 0.018397 0.346710 0.061861
v 0.029453 0.346710 0.068103
v -0.027421 0.338917 0.095476
v 0.027421 0.338917 0.095476
v -0.027421 0.386277 0.095476
v 0.027421 0.386277 0.095476
v -0.027421 0.386277 0.070872
v 0.027421 0.386277 0.070872
v -0.027421 0.338917 0.070872
v 0.027421 0.338917 0.070872
v -0.027775 0.375843 0.080818
v -0.024290 0.383573 0.081181
v -0.015339 0.386582 0.080818
v 0.015339 0.386582 0.080584
v 0.024290 0.383573 0.081181
v 0.027775 0.375843 0.080818
v 0.027775 0.349351 0.080818
v 0.024290 0.341621 0.081181
v 0.015339 0.338612 0.080818
v -0.015339 0.338612 0.080818
v -0.024290 0.341621 0.081181
v -0.027775 0.349351 0.080818
v -0.018397 0.335197 0.090754
v -0.028431 0.338045 0.089361
v -0.031730 0.346710 0.090754
v -0.031730 0.378484 0.090754
v -0.028431 0.387149 0.089361
v -0.018397 0.389997 0.090754
v 0.018397 0.389997 0.090633
v 0.028431 0.387149 0.089361
v 0.031730 0.378484 0.090754
v 0.031730 0.346710 0.090754
v 0.028431 0.338045 0.089361
v 0.018397 0.335197 0.090754
vt 0.432429 0.057429
vt 0.419733 -0.000000
vt 0.580267 -0.000000
vt 0.567571 0.057429
vt 0.573956 0.937865
vt 0.426044 0.937865
vt 0.432429 0.875000
vt 0.567571 0.875000
vt 0.250000 0.057429
vt 0.312752 0.054043
vt 0.312752 0.195957
vt 0.250000 0.192571
vt 0.374774 0.050697
vt 0.432429 0.192571
vt 0.374774 0.199303
vt 0.625226 0.050697
vt 0.625226 0.199303
vt 0.567571 0.192571
vt 0.687248 0.195957
vt 0.687248 0.054043
vt 0.750000 0.057429
vt 0.750000 0.192571
vt 0.432429 0.375000
vt 0.429043 0.312248
vt 0.570957 0.312248
vt 0.567571 0.375000
vt 0.425697 0.250226
vt 0.574303 0.250226
vt 0.230352 0.055433
vt 0.230352 0.194567
vt 0.125000 0.205267
vt 0.125000 0.044733
vt 0.375000 0.544733
vt 0.432429 0.557429
vt 0.432429 0.692571
vt 0.375000 0.705267
vt 0.425697 0.499774
vt 0.574303 0.499774
vt 0.567571 0.557429
vt 0.431371 0.394613
vt 0.568629 0.394613
vt 0.625000 0.544733
vt 0.625000 0.705267
vt 0.567571 0.692571
vt 0.875000 0.205267
vt 0.769648 0.194567
vt 0.769648 0.055433
vt 0.875000 0.044733
vt 0.568629 0.855387
vt 0.431371 0.855387
vt 0.425697 0.750226
vt 0.574303 0.750226
vt 0.312865 0.000000
vt 0.250000 -0.000000
vt 0.375000 0.875000
vt 0.375000 0.937865
vt 0.375000 0.000000
vt 0.625000 0.937865
vt 0.625000 0.875000
vt 0.750000 -0.000000
vt 0.687135 0.000000
vt 0.625000 0.000000
vt 0.375000 0.312135
vt 0.375000 0.375000
vt 0.250000 0.250000
vt 0.312865 0.250000
vt 0.375000 0.250000
vt 0.687135 0.250000
vt 0.750000 0.250000
vt 0.625000 0.375000
vt 0.625000 0.312135
vt 0.625000 0.250000
vt 0.375000 0.500000
vt 0.230352 0.250000
vt 0.125000 0.250000
vt 0.375000 0.394648
vt 0.769648 0.250000
vt 0.875000 0.250000
vt 0.625000 0.500000
vt 0.625000 0.394648
vt 0.375000 0.855352
vt 0.375000 0.750000
vt 0.230352 0.000000
vt 0.125000 0.000000
vt 0.769648 0.000000
vt 0.875000 0.000000
vt 0.625000 0.855352
vt 0.625000 0.750000
vt 0.419733 1.000000
vt 0.375000 1.000000
vt 0.580267 1.000000
vt 0.625000 1.000000
vn -0.1080 -0.1163 0.9873
vn -0.0429 -0.5390 0.8412
vn 0.0429 -0.5390 0.8412
vn 0.0997 -0.1236 0.9873
vn 0.0443 -0.9453 0.3232
vn -0.0442 -0.9463 0.3203
vn -0.0673 -0.9831 -0.1703
vn 0.0584 -0.9829 -0.1745
vn -0.9830 -0.1149 -0.1435
vn -0.9264 -0.0867 0.3664
vn -0.9268 0.0867 0.3653
vn -0.9834 0.1056 -0.1477
vn -0.4852 -0.0714 0.8715
vn -0.0857 0.1383 0.9867
vn -0.4852 0.0714 0.8715
vn 0.4852 -0.0714 0.8715
vn 0.4852 0.0714 0.8715
vn 0.0932 0.1301 0.9871
vn 0.9264 0.0867 0.3664
vn 0.9268 -0.0867 0.3653
vn 0.9834 -0.1056 -0.1477
vn 0.9830 0.1149 -0.1435
vn -0.0583 0.9835 -0.1715
vn -0.0428 0.9459 0.3216
vn 0.0447 0.9471 0.3179
vn 0.0660 0.9828 -0.1727
vn -0.0429 0.5390 0.8412
vn 0.0429 0.5390 0.8412
vn -0.9366 -0.0595 -0.3454
vn -0.9357 0.0443 -0.3499
vn -0.9819 0.0722 0.1752
vn -0.9819 -0.0722 0.1752
vn -0.4852 0.0714 -0.8715
vn -0.0949 0.1248 -0.9876
vn -0.0857 -0.1383 -0.9867
vn -0.4852 -0.0714 -0.8715
vn -0.0498 0.5271 -0.8484
vn 0.0420 0.5225 -0.8516
vn 0.0993 0.1175 -0.9881
vn -0.0413 0.9875 0.1522
vn -0.0292 0.9459 -0.3231
vn -0.0062 0.9440 -0.3299
vn 0.0422 0.9878 0.1499
vn 0.4870 0.0692 -0.8707
vn 0.4852 -0.0714 -0.8715
vn 0.0932 -0.1301 -0.9871
vn 0.9819 0.0722 0.1752
vn 0.9366 0.0595 -0.3454
vn 0.9357 -0.0443 -0.3499
vn 0.9819 -0.0722 0.1752
vn 0.0270 -0.9459 -0.3233
vn 0.0044 -0.9429 -0.3331
vn -0.0429 -0.9873 0.1528
vn 0.0429 -0.9873 0.1528
vn -0.0429 -0.5390 -0.8412
vn 0.0429 -0.5390 -0.8412
vn -0.8562 -0.3763 0.3539
vn -0.8724 -0.4207 -0.2487
vn -0.3195 -0.9277 -0.1932
vn -0.2957 -0.8982 0.3253
vn -0.3968 -0.4595 0.7947
vn 0.2957 -0.8982 0.3253
vn 0.3195 -0.9277 -0.1932
vn 0.8724 -0.4207 -0.2487
vn 0.8562 -0.3763 0.3539
vn 0.3968 -0.4595 0.7947
vn -0.2957 0.8982 0.3253
vn -0.3195 0.9277 -0.1932
vn -0.8724 0.4207 -0.2487
vn -0.8562 0.3763 0.3539
vn -0.3968 0.4595 0.7947
vn 0.8562 0.3763 0.3539
vn 0.8724 0.4207 -0.2487
vn 0.3229 0.9282 -0.1847
vn 0.2913 0.9009 0.3218
vn 0.3968 0.4595 0.7947
vn -0.3968 0.4595 -0.7947
vn -0.8859 0.2818 -0.3685
vn -0.9257 0.2770 0.2577
vn -0.2469 0.8896 -0.3843
vn -0.2120 0.9502 0.2284
vn 0.8859 0.2818 -0.3685
vn 0.9257 0.2770 0.2577
vn 0.4151 0.4401 -0.7963
vn 0.2504 0.8868 -0.3885
vn 0.2044 0.9528 0.2244
vn -0.2469 -0.8896 -0.3843
vn -0.2120 -0.9502 0.2284
vn -0.8859 -0.2818 -0.3685
vn -0.9257 -0.2770 0.2577
vn -0.3968 -0.4595 -0.7947
vn 0.8859 -0.2818 -0.3685
vn 0.9257 -0.2770 0.2577
vn 0.2469 -0.8896 -0.3843
vn 0.2120 -0.9502 0.2284
vn 0.3968 -0.4595 -0.7947
vn -0.0395 -0.9685 0.2460
vn -0.2735 -0.9373 0.2158
vn -0.9567 -0.0761 0.2810
vn -0.9038 -0.3537 0.2410
vn -0.9567 0.0761 0.2810
vn -0.9038 0.3537 0.2410
vn -0.0388 0.9689 0.2446
vn -0.2735 0.9373 0.2158
vn 0.0396 0.9690 0.2440
vn 0.2720 0.9382 0.2140
vn 0.9567 0.0761 0.2810
vn 0.9038 0.3537 0.2410
vn 0.9567 -0.0761 0.2810
vn 0.9038 -0.3537 0.2410
vn 0.0395 -0.9685 0.2460
vn 0.2735 -0.9373 0.2158
usemtl rsMaterial2
s 1
f 4/1/1 3/2/2 11/3/3 10/4/4
f 68/5/5 57/6/6 2/7/7 12/8/8
f 6/9/9 59/10/10 60/11/11 14/12/12
f 5/13/13 4/1/1 16/14/14 15/15/15
f 10/4/4 9/16/16 23/17/17 22/18/18
f 65/19/19 66/20/20 8/21/21 24/22/22
f 18/23/23 62/24/24 63/25/25 20/26/26
f 17/27/27 16/14/14 22/18/18 21/28/28
f 56/29/29 45/30/30 25/31/31 31/32/32
f 25/33/33 27/34/34 32/35/35 31/36/36
f 27/34/34 26/37/37 30/38/38 29/39/39
f 26/37/40 47/40/41 48/41/42 30/38/43
f 29/39/39 28/42/44 36/43/45 35/44/46
f 28/45/47 50/46/48 51/47/49 36/48/50
f 53/49/51 54/50/52 33/51/53 34/52/54
f 33/51/55 32/35/35 35/44/46 34/52/56
f 4/1/1 10/4/4 22/18/18 16/14/14
f 27/34/34 29/39/39 35/44/46 32/35/35
f 58/53/57 59/10/10 6/9/9 1/54/58
f 1/55/59 2/7/7 57/6/6 58/56/60
f 3/2/2 4/1/1 5/13/13 37/57/61
f 67/58/62 68/5/5 12/8/8 7/59/63
f 7/60/64 8/21/21 66/20/20 67/61/65
f 9/16/16 10/4/4 11/3/3 38/62/66
f 61/63/67 62/24/24 18/23/23 13/64/68
f 13/65/69 14/12/12 60/11/11 61/66/70
f 15/15/15 16/14/14 17/27/27 39/67/71
f 64/68/72 65/19/19 24/22/22 19/69/73
f 19/70/74 20/26/26 63/25/25 64/71/75
f 21/28/28 22/18/18 23/17/17 40/72/76
f 26/37/37 27/34/34 25/33/33 41/73/77
f 25/31/31 45/30/30 46/74/78 41/75/79
f 46/76/80 47/40/41 26/37/40 41/73/81
f 49/77/82 50/46/48 28/45/47 42/78/83
f 28/42/44 29/39/39 30/38/38 42/79/84
f 30/38/43 48/41/42 49/80/85 42/79/86
f 33/51/53 54/50/52 55/81/87 43/82/88
f 55/83/89 56/29/29 31/32/32 43/84/90
f 31/36/36 32/35/35 33/51/55 43/82/91
f 36/48/50 51/47/49 52/85/92 44/86/93
f 52/87/94 53/49/51 34/52/54 44/88/95
f 34/52/56 35/44/46 36/43/45 44/88/96
f 46/74/78 45/30/30 14/12/12 13/65/69
f 13/64/68 18/23/23 47/40/41 46/76/80
f 48/41/42 47/40/41 18/23/23 20/26/26
f 49/80/85 48/41/42 20/26/26 19/70/74
f 19/69/73 24/22/22 50/46/48 49/77/82
f 51/47/49 50/46/48 24/22/22 8/21/21
f 52/85/92 51/47/49 8/21/21 7/60/64
f 7/59/63 12/8/8 53/49/51 52/87/94
f 2/7/7 54/50/52 53/49/51 12/8/8
f 55/81/87 54/50/52 2/7/7 1/55/59
f 1/54/58 6/9/9 56/29/29 55/83/89
f 14/12/12 45/30/30 56/29/29 6/9/9
f 58/56/60 57/6/6 3/89/97 37/90/98
f 5/13/99 59/10/10 58/53/57 37/57/100
f 60/11/11 59/10/10 5/13/99 15/15/101
f 61/66/70 60/11/11 15/15/101 39/67/102
f 17/27/103 62/24/24 61/63/67 39/67/104
f 63/25/25 62/24/24 17/27/103 21/28/105
f 64/71/75 63/25/25 21/28/105 40/72/106
f 23/17/107 65/19/19 64/68/72 40/72/108
f 9/16/109 66/20/20 65/19/19 23/17/107
f 67/61/65 66/20/20 9/16/109 38/62/110
f 11/91/111 68/5/5 67/58/62 38/92/112
f 3/89/97 57/6/6 68/5/5 11/91/111
